<mxfile host="app.diagrams.net" modified="2022-03-17T00:05:08.294Z" agent="5.0 (Windows NT 10.0; Win64; x64) AppleWebKit/537.36 (KHTML, like Gecko) Chrome/99.0.4844.51 Safari/537.36" etag="c5BGlLgpE5L4D-lDwHXx" version="16.6.5" type="github">
  <diagram id="DbuY16Fwg9nMmUhFfXNa" name="Page-1">
    <mxGraphModel dx="1038" dy="543" grid="1" gridSize="10" guides="1" tooltips="1" connect="1" arrows="1" fold="1" page="1" pageScale="1" pageWidth="850" pageHeight="1100" math="0" shadow="0">
      <root>
        <mxCell id="0" />
        <mxCell id="1" parent="0" />
        <mxCell id="8CpEwkt4N97cPjD-HdWt-3" value="" style="edgeStyle=orthogonalEdgeStyle;rounded=0;orthogonalLoop=1;jettySize=auto;html=1;" edge="1" parent="1" source="8CpEwkt4N97cPjD-HdWt-1" target="8CpEwkt4N97cPjD-HdWt-2">
          <mxGeometry relative="1" as="geometry" />
        </mxCell>
        <mxCell id="8CpEwkt4N97cPjD-HdWt-7" value="" style="edgeStyle=orthogonalEdgeStyle;rounded=0;orthogonalLoop=1;jettySize=auto;html=1;exitX=1.003;exitY=0.393;exitDx=0;exitDy=0;exitPerimeter=0;" edge="1" parent="1" source="8CpEwkt4N97cPjD-HdWt-2" target="8CpEwkt4N97cPjD-HdWt-6">
          <mxGeometry relative="1" as="geometry" />
        </mxCell>
        <mxCell id="8CpEwkt4N97cPjD-HdWt-1" value="App-RestBar" style="rounded=1;whiteSpace=wrap;html=1;shadow=1;sketch=1;glass=0;fillColor=#dae8fc;strokeColor=#6c8ebf;fontSize=17;fontStyle=1" vertex="1" parent="1">
          <mxGeometry x="360" y="250" width="120" height="60" as="geometry" />
        </mxCell>
        <mxCell id="8CpEwkt4N97cPjD-HdWt-2" value="Categoria:&lt;br&gt;&lt;ul&gt;&lt;li&gt;id&lt;/li&gt;&lt;li&gt;nombre&lt;/li&gt;&lt;/ul&gt;" style="whiteSpace=wrap;html=1;rounded=1;fillColor=#d5e8d4;strokeColor=#82b366;" vertex="1" parent="1">
          <mxGeometry x="100" y="390" width="120" height="90" as="geometry" />
        </mxCell>
        <mxCell id="8CpEwkt4N97cPjD-HdWt-13" style="edgeStyle=orthogonalEdgeStyle;rounded=0;orthogonalLoop=1;jettySize=auto;html=1;entryX=-0.009;entryY=0.328;entryDx=0;entryDy=0;entryPerimeter=0;" edge="1" parent="1" source="8CpEwkt4N97cPjD-HdWt-4" target="8CpEwkt4N97cPjD-HdWt-9">
          <mxGeometry relative="1" as="geometry" />
        </mxCell>
        <mxCell id="8CpEwkt4N97cPjD-HdWt-4" value="Orden:&lt;br&gt;&lt;ul&gt;&lt;li&gt;idorden&lt;/li&gt;&lt;li&gt;nummesa&lt;/li&gt;&lt;li&gt;producto&lt;/li&gt;&lt;li&gt;subtotal&lt;/li&gt;&lt;li&gt;isv&lt;/li&gt;&lt;li&gt;total&lt;/li&gt;&lt;li&gt;estado&lt;/li&gt;&lt;/ul&gt;" style="whiteSpace=wrap;html=1;rounded=1;fillColor=#fff2cc;strokeColor=#d6b656;" vertex="1" parent="1">
          <mxGeometry x="520" y="365" width="110" height="170" as="geometry" />
        </mxCell>
        <mxCell id="8CpEwkt4N97cPjD-HdWt-10" value="" style="edgeStyle=orthogonalEdgeStyle;rounded=0;orthogonalLoop=1;jettySize=auto;html=1;entryX=0;entryY=0.5;entryDx=0;entryDy=0;" edge="1" parent="1" source="8CpEwkt4N97cPjD-HdWt-6" target="8CpEwkt4N97cPjD-HdWt-4">
          <mxGeometry relative="1" as="geometry" />
        </mxCell>
        <mxCell id="8CpEwkt4N97cPjD-HdWt-6" value="Producto:&lt;br&gt;&lt;ul&gt;&lt;li&gt;id&lt;/li&gt;&lt;li&gt;nombre&lt;/li&gt;&lt;li&gt;precio&lt;/li&gt;&lt;li&gt;categoria&lt;/li&gt;&lt;/ul&gt;" style="whiteSpace=wrap;html=1;rounded=1;fillColor=#ffe6cc;strokeColor=#d79b00;" vertex="1" parent="1">
          <mxGeometry x="300" y="365" width="120" height="140" as="geometry" />
        </mxCell>
        <mxCell id="8CpEwkt4N97cPjD-HdWt-9" value="Facturacion:&lt;br&gt;&lt;ul&gt;&lt;li&gt;idfactura&lt;/li&gt;&lt;li&gt;idorden&lt;/li&gt;&lt;li&gt;total&lt;/li&gt;&lt;li&gt;metodopago&lt;/li&gt;&lt;/ul&gt;" style="whiteSpace=wrap;html=1;rounded=1;fillColor=#f8cecc;strokeColor=#b85450;" vertex="1" parent="1">
          <mxGeometry x="690" y="370" width="140" height="160" as="geometry" />
        </mxCell>
      </root>
    </mxGraphModel>
  </diagram>
</mxfile>
